<svg version="1.1" id="Capa_1" xmlns="http://www.w3.org/2000/svg" xmlns:xlink="http://www.w3.org/1999/xlink" x="0px" y="0px" viewBox="0 0 32 32" style="enable-background:new 0 0 297.411 297.411;" xml:space="preserve" width="32" height="32"><path d="M27.13 18.928h-9.516v-5.888c0.702 -0.241 1.346 -0.64 1.886 -1.181 0.63 -0.63 0.63 -1.652 0 -2.282 -0.545 -0.545 -1.384 -0.618 -2.008 -0.219 -0.242 -0.586 -0.818 -0.998 -1.492 -0.998 -0.641 0 -1.194 0.375 -1.454 0.917a1.711 1.711 0 0 1 -0.267 -0.917c0 -0.949 0.772 -1.722 1.722 -1.722 0.891 0 1.614 -0.723 1.614 -1.614V1.614c0 -0.891 -0.723 -1.614 -1.614 -1.614s-1.614 0.723 -1.614 1.614v2.067c-1.939 0.671 -3.335 2.515 -3.335 4.679 0 2.164 1.397 4.007 3.335 4.678v5.891h-9.516c-0.891 0 -1.614 0.723 -1.614 1.614v9.844c0 0.891 0.723 1.614 1.614 1.614h22.26c0.891 0 1.614 -0.723 1.614 -1.614v-9.844c0 -0.891 -0.723 -1.614 -1.614 -1.614m-1.614 9.844H6.484v-6.616h19.032v6.616z" fill="#8a2be2"/></svg>